# Blender v2.75 (sub 0) OBJ File: ''
# www.blender.org
mtllib bird1.mtl
o Cube_Cube.001
v 0.132865 0.098835 -1.359453
v 0.132865 -0.116770 -1.359453
v 0.000414 -0.140394 -1.467515
v -0.132865 0.098835 -1.359453
v -0.132865 -0.116770 -1.359453
v -0.000414 -0.140394 -1.467515
v -0.233019 -0.008968 1.504283
v 0.233019 -0.008968 1.504283
v -0.161890 -0.008968 -1.467515
v -0.000414 0.122458 -1.467515
v -0.000414 -0.008968 -1.694292
v -0.304617 -0.256561 -0.819410
v -0.208472 -0.298554 0.849434
v -0.313808 -0.359887 0.002334
v 0.161890 -0.008968 -1.467515
v -0.304617 0.238625 -0.819410
v -0.322759 0.253391 0.889383
v -0.385123 0.304150 0.020974
v 0.000414 0.122458 -1.467515
v -0.000414 0.383333 0.741654
v -0.000414 0.379717 -0.699380
v -0.000414 0.416092 0.020974
v -1.098855 -0.192773 -1.039940
v -1.097216 -0.239878 -1.046403
v -1.088316 -0.215320 -1.092893
v -0.007016 -0.419216 0.682840
v -0.000414 -0.397653 -0.699380
v -0.000414 -0.434027 0.020974
v 0.000414 -0.008968 -1.694292
v 0.304617 -0.256561 -0.819410
v 0.221948 -0.284666 0.837695
v 0.306593 -0.282126 0.023487
v 0.304617 0.238625 -0.819410
v -0.191209 0.146321 1.420737
v -0.197811 -0.182203 1.361924
v -0.010233 -0.135745 2.153355
v -0.000414 0.180351 1.504283
v -0.007016 -0.216233 1.445470
v -0.464646 -0.053538 1.814030
v -0.462411 -0.031189 -0.710152
v -0.462411 0.013253 -0.710152
v -0.452073 -0.008968 -0.762312
v -0.468492 0.013906 0.754533
v -0.468492 -0.031841 0.754533
v -0.458515 -0.008968 0.814730
v -0.512222 -0.032730 0.020974
v -0.512222 0.014795 0.020974
v -1.100606 -0.147991 0.469212
v -1.110549 -0.125175 0.408876
v -1.108815 -0.173740 0.402041
v -1.152544 -0.174629 -0.331519
v -1.154412 -0.124070 -0.324158
v -1.968165 -0.054395 -0.416278
v -1.924436 -0.053505 0.317281
v -1.968330 -0.005723 -0.411694
v -1.935068 -0.054420 -0.929369
v -1.934912 -0.099881 -0.933413
v -1.914491 -0.029682 0.381621
v -1.924596 -0.006686 0.321550
v -1.924956 -0.076494 -0.981625
v -2.489018 0.167847 0.129864
v -2.559803 0.131598 0.629022
v -2.487940 0.214416 0.129179
v -2.498156 0.215634 0.062270
v -2.499101 0.172030 0.062872
v -2.547530 0.151385 0.683050
v -2.558802 0.176457 0.628384
v -2.486451 0.191136 0.004469
v 0.322759 0.253391 0.889383
v 0.385123 0.304150 0.020974
v 0.000414 0.383333 0.741654
v 0.000414 0.379717 -0.699380
v -0.451611 0.017656 1.930144
v 0.000414 0.416092 0.020974
v 1.098855 -0.192773 -1.039940
v 1.097216 -0.239878 -1.046403
v 1.088316 -0.215320 -1.092893
v 0.007016 -0.419216 0.682840
v 0.000414 -0.397653 -0.699380
v 0.000414 -0.434027 0.020974
v 0.191209 0.146321 1.420737
v 0.197811 -0.182203 1.361924
v 0.010233 -0.135745 2.153355
v 0.000414 0.180351 1.504283
v 0.007016 -0.216233 1.445470
v 0.464646 -0.053538 1.814030
v 0.462411 -0.031189 -0.710152
v 0.462411 0.013253 -0.710152
v 0.452073 -0.008968 -0.762312
v 0.468492 0.013906 0.754533
v 0.468492 -0.031841 0.754533
v 0.458515 -0.008968 0.814730
v 0.512222 -0.032730 0.020974
v 0.512222 0.014795 0.020974
v 1.100606 -0.147991 0.469212
v 1.110549 -0.125175 0.408876
v 1.108815 -0.173740 0.402041
v 1.152544 -0.174629 -0.331519
v 1.154412 -0.124070 -0.324158
v 1.968165 -0.054395 -0.416278
v 1.924436 -0.053505 0.317281
v 1.968330 -0.005723 -0.411694
v -0.237182 -0.035971 1.440597
v -0.230580 0.000089 1.499411
v -0.007016 -0.118239 1.612469
v -0.000414 0.000027 1.671282
v 1.935068 -0.054420 -0.929369
v 1.934912 -0.099881 -0.933413
v 1.914491 -0.029682 0.381621
v 1.924596 -0.006686 0.321550
v 1.924956 -0.076494 -0.981625
v 0.000000 -0.133894 2.145714
v 0.000000 -0.064287 2.267377
v 0.000000 -0.008968 -1.693709
v 0.000000 0.122384 -1.467176
v 0.000000 -0.140320 -1.467176
v 0.000000 0.383166 0.741844
v 0.000000 0.415971 0.020974
v 0.000000 0.379525 -0.699543
v 0.000000 -0.416387 0.686056
v 0.000000 -0.433907 0.020974
v 0.000000 -0.397461 -0.699543
v 0.000000 0.180277 1.504102
v 0.000000 -0.080046 2.244510
v 0.000000 0.000027 1.670973
v 0.000000 -0.115731 1.607229
v 0.000000 -0.008326 1.748366
v 0.000000 -0.214981 1.442397
v 2.489018 0.167847 0.129864
v 2.559803 0.131598 0.629022
v 2.487940 0.214416 0.129179
v 2.498156 0.215634 0.062270
v 2.499101 0.172030 0.062872
v 2.547530 0.151385 0.683050
v 2.558802 0.176457 0.628384
v 2.486451 0.191136 0.004469
v 0.451611 0.017656 1.930144
v 0.237182 -0.035971 1.440597
v 0.230580 0.000089 1.499411
v 0.007016 -0.118239 1.612469
v 0.000414 0.000027 1.671282
vt 0.375000 0.250000
vt 0.500000 0.250000
vt 0.500000 0.187683
vt 0.751922 0.625000
vt 0.753323 0.565498
vt 0.751794 0.625000
vt 0.489102 0.066662
vt 0.379080 0.125000
vt 0.375000 0.053930
vt 0.488782 0.183373
vt 0.625000 0.250000
vt 0.625000 0.196070
vt 0.753323 0.684502
vt 0.875000 0.750000
vt 0.755208 0.755208
vt 0.875000 0.500000
vt 0.755208 0.494792
vt 0.125000 0.696070
vt 0.244792 0.755208
vt 0.125000 0.750000
vt 0.625000 0.053930
vt 0.510898 0.066662
vt 0.500000 0.061374
vt 0.490823 0.125000
vt 0.753479 0.684517
vt 0.500000 0.373264
vt 0.369792 0.369792
vt 0.500000 0.372948
vt 0.369808 0.369417
vt 0.509177 0.125000
vt 0.620920 0.125000
vt 0.870977 0.625000
vt 0.875000 0.696070
vt 0.875000 0.553930
vt 0.244029 0.684754
vt 0.246677 0.684502
vt 0.375000 0.196070
vt 0.375000 0.000000
vt 0.630208 0.369792
vt 0.630192 0.369417
vt 0.246677 0.565498
vt 0.129023 0.625000
vt 0.125000 0.553930
vt 0.248206 0.625000
vt 0.248078 0.625000
vt 0.246511 0.565483
vt 0.244792 0.494792
vt 0.244417 0.494808
vt 0.125000 0.500000
vt 0.505842 0.185210
vt 0.506187 0.876901
vt 0.625000 1.000000
vt 0.507291 1.000000
vt 0.511218 0.183373
vt 0.493581 0.065155
vt 0.630208 0.880208
vt 0.240386 0.755017
vt 0.493814 0.876901
vt 0.375000 1.000000
vt 0.369792 0.880208
vt 0.493789 0.879673
vt 0.503527 0.876901
vt 0.000000 0.000000
vt 0.506189 0.877123
vt 0.492710 1.000000
vt 0.369983 0.884614
vt 0.630197 0.880469
vt 0.625000 0.000000
vt 0.753489 0.565482
vt 0.755583 0.494808
vt 0.506194 0.877660
vt 0.493780 0.880654
vt 0.500000 0.000000
vt 0.755469 0.755197
vn 0.782300 -0.533300 -0.321900
vn 0.278800 0.959100 -0.048400
vn -0.733400 -0.665400 0.139400
vn -0.205600 -0.848500 -0.487600
vn -0.832900 0.410500 -0.371100
vn -0.274100 0.929400 0.247400
vn -0.393600 0.871700 -0.291900
vn -0.263400 -0.939600 0.218800
vn -0.881500 0.374100 0.288300
vn 0.770200 -0.635600 -0.053800
vn -0.356600 0.933300 0.042500
vn 0.726100 -0.594200 0.346100
vn 0.635900 -0.625000 -0.452800
vn 0.635900 0.625000 -0.452800
vn 0.491000 -0.753700 -0.437000
vn -0.490900 -0.753800 -0.436900
vn -0.635900 0.625000 -0.452800
vn -0.144800 0.989400 -0.007200
vn 0.914200 0.401600 0.055000
vn -0.341200 0.936600 0.079300
vn -0.278000 0.955300 -0.101100
vn 0.262200 -0.932600 0.248200
vn 0.386900 -0.891100 0.237200
vn -0.854600 -0.514000 -0.074200
vn -0.873300 -0.389500 0.292700
vn -0.872600 0.479900 0.090700
vn -0.782300 -0.533300 -0.321900
vn 0.356600 0.933300 0.042500
vn 0.490800 0.753700 -0.437000
vn -0.378500 -0.917800 -0.119600
vn -0.234700 -0.967000 0.099200
vn 0.279300 -0.959900 0.024300
vn 0.405200 -0.913100 -0.046200
vn 0.278000 0.955300 -0.101100
vn 0.393600 -0.871700 -0.292000
vn -0.289300 -0.900300 -0.325100
vn 0.978400 0.018400 -0.205900
vn 0.988300 0.025100 0.150300
vn -0.099700 0.936000 0.337500
vn -0.514700 0.509500 0.689500
vn -0.085100 0.910500 -0.404600
vn 0.303300 -0.952700 0.018700
vn -0.155200 0.982100 -0.106300
vn -0.219000 0.975600 0.014200
vn -0.839800 0.529000 -0.121700
vn 0.103800 0.923200 -0.369900
vn 0.144800 0.989400 -0.007200
vn -0.146800 -0.989100 0.010000
vn 0.425400 -0.859900 -0.282000
vn 0.222700 -0.974800 -0.012100
vn 0.010600 -0.934100 0.356800
vn -0.387600 0.838600 0.382900
vn 0.356500 0.933500 -0.037400
vn -0.093200 -0.927900 0.361000
vn 0.382600 0.882500 0.273500
vn -0.345100 -0.936600 0.060200
vn -0.172800 -0.914700 0.365400
vn 0.152100 0.984900 -0.082900
vn -0.154100 -0.985000 0.078000
vn 0.099700 0.936000 0.337500
vn -0.978400 0.018400 -0.205900
vn -0.976800 0.024800 0.212800
vn -0.988200 0.023500 0.151300
vn -0.990100 0.020900 -0.139000
vn 0.327700 0.937400 0.117800
vn -0.346800 0.836300 -0.424700
vn -0.838300 -0.402100 -0.368200
vn -0.371600 -0.928100 0.023300
vn 0.341200 0.936600 0.079300
vn -0.364100 -0.931000 0.024500
vn 0.393600 -0.871700 -0.291900
vn -0.393600 -0.871700 -0.292000
vn -0.575900 0.707300 -0.409900
vn -0.103600 0.922400 -0.372100
vn 0.219000 0.975600 0.014200
vn 0.404600 0.621400 0.670900
vn -0.274100 -0.929300 0.247500
vn -0.405200 -0.913100 -0.046200
vn 0.443700 -0.895100 0.043300
vn 0.411300 -0.911100 -0.028600
vn -0.425400 -0.859900 -0.282000
vn 0.387600 0.838600 0.382900
vn -0.382600 0.882500 0.273500
vn -0.012400 -0.935400 0.353400
vn 0.297400 0.954500 -0.022300
vn 0.085000 0.910500 -0.404700
vn -0.303300 -0.952700 0.018700
vn 0.839800 0.529000 -0.121700
vn -0.152000 0.984900 -0.082700
vn -0.332900 0.940600 -0.067100
vn -0.222700 -0.974800 -0.012100
vn 0.094900 -0.928700 0.358500
vn 0.345100 -0.936600 0.060200
vn 0.172600 -0.912500 0.370900
vn 0.154100 -0.985000 0.078000
vn 0.146800 -0.989100 0.010000
vn 0.338100 0.841700 -0.421000
vn 0.990100 0.020100 -0.138900
vn -0.351500 -0.807400 0.473800
vn 0.458700 -0.780200 0.425300
vn -0.631800 0.690400 -0.352400
vn 0.079600 0.991100 0.107000
vn 0.976800 0.024800 0.212800
vn -0.099100 -0.989300 -0.106900
vn 0.351500 -0.807500 0.473800
vn -0.371500 0.928200 -0.020900
vn 0.404600 0.621400 0.671000
vn 0.393600 0.871700 -0.291900
vn 0.832900 0.410500 -0.371100
vn 0.260100 0.932000 0.252200
vn -0.490800 -0.753700 -0.437000
vn 0.262000 0.932600 0.248200
vn 0.880600 0.372300 0.293000
vn 0.205600 -0.848500 -0.487600
vn 0.393600 0.871700 -0.292000
vn -0.405200 0.913100 -0.046200
vn 0.726000 -0.683800 0.073300
vn -0.497300 -0.714400 0.492300
vn -0.079200 0.991100 0.106900
vn 0.155500 -0.987400 -0.031000
vn 0.838300 -0.402100 -0.368200
vn 0.371600 -0.928100 0.023300
vn 0.351500 -0.807400 0.473800
vn -0.458700 -0.780200 0.425300
vn 0.631800 0.690400 -0.352400
vn -0.079600 0.991100 0.107000
vn 0.314700 -0.948600 -0.032600
vn -0.351500 -0.807500 0.473800
vn -0.480700 0.595700 0.643500
vn -0.261900 0.932600 0.248200
vn -0.300000 0.904600 -0.302900
vn 0.497300 -0.714400 0.492300
vn -0.151300 0.987800 0.037400
vn -0.315100 -0.948500 -0.032000
vn 0.839200 -0.420100 -0.345300
vn 0.832900 -0.410500 -0.371100
vn 0.405200 0.913100 -0.046200
vn -0.852600 -0.520000 0.051500
vn -0.206400 -0.862900 -0.461200
vn -0.782300 0.533300 -0.321900
vn -0.839200 0.420200 -0.345300
vn -0.260100 0.932000 0.252200
vn -0.289300 0.900300 -0.325100
vn -0.343800 -0.907500 0.241500
vn -0.875300 0.389700 0.286200
vn -0.880600 0.372300 0.293000
vn 0.823400 -0.567200 -0.019100
vn -0.278900 0.959300 0.043600
vn 0.867200 -0.409300 0.283600
vn 0.755800 -0.635300 0.159000
vn 0.490900 -0.753800 -0.436900
vn 0.490900 0.753800 -0.436900
vn 0.576000 -0.707300 -0.409900
vn -0.635900 -0.625000 -0.452800
vn -0.490900 0.753800 -0.436900
vn -0.144700 0.989500 -0.007300
vn 0.872600 0.479900 0.090700
vn -0.279100 0.959300 0.043600
vn -0.405300 0.913000 -0.046100
vn 0.274100 -0.929300 0.247500
vn 0.255000 -0.946700 0.196800
vn -0.830700 -0.553600 -0.057800
vn -0.734900 -0.657900 0.164600
vn -0.867200 -0.409300 0.283600
vn -0.914200 0.401600 0.055000
vn -0.832900 -0.410500 -0.371100
vn -0.839200 -0.420100 -0.345300
vn 0.278900 0.959300 0.043600
vn 0.575900 0.707300 -0.409900
vn -0.227200 -0.972600 -0.049100
vn -0.505100 -0.863000 0.014300
vn 0.364100 -0.931000 0.024500
vn 0.279100 -0.959000 -0.048400
vn 0.405300 0.913000 -0.046100
vn 0.300000 -0.904500 -0.302900
vn -0.393600 -0.871700 -0.291900
vn 0.988200 0.023500 0.151300
vn -0.099500 0.934700 0.341100
vn -0.404600 0.621400 0.670900
vn -0.085000 0.910500 -0.404700
vn 0.161300 -0.981600 0.102100
vn -0.297400 0.954500 -0.022300
vn -0.218800 0.975700 0.014600
vn -0.913700 0.401400 -0.063100
vn 0.103600 0.922400 -0.372100
vn 0.144700 0.989500 -0.007300
vn 0.453600 -0.821000 -0.346800
vn 0.012400 -0.935400 0.353400
vn -0.387100 0.839500 0.381300
vn 0.332900 0.940600 -0.067100
vn -0.094900 -0.928700 0.358500
vn 0.400000 0.861500 0.312600
vn -0.391200 -0.920300 0.001400
vn -0.172600 -0.912500 0.370900
vn 0.152000 0.984900 -0.082700
vn -0.153200 -0.985200 0.076800
vn 0.099500 0.934700 0.341100
vn -0.988300 0.025100 0.150300
vn -0.990100 0.020100 -0.138900
vn 0.371500 0.928200 -0.020900
vn -0.338100 0.841700 -0.421000
vn -0.815000 -0.475000 -0.331900
vn -0.329300 -0.937200 -0.114800
vn 0.279100 0.959300 0.043600
vn -0.279300 -0.959900 0.024300
vn 0.289300 -0.900300 -0.325100
vn -0.300100 -0.904500 -0.302900
vn -0.490900 0.753700 -0.437000
vn -0.103800 0.923200 -0.369900
vn 0.218800 0.975700 0.014600
vn 0.514700 0.509500 0.689500
vn -0.262200 -0.932600 0.248200
vn -0.279100 -0.959000 -0.048400
vn 0.523400 -0.852000 0.013800
vn 0.444300 -0.894800 -0.045200
vn -0.453600 -0.821000 -0.346800
vn 0.387100 0.839500 0.381300
vn -0.400000 0.861500 0.312600
vn -0.010600 -0.934100 0.356800
vn 0.155200 0.982100 -0.106300
vn 0.085100 0.910500 -0.404600
vn -0.161300 -0.981600 0.102100
vn 0.913700 0.401400 -0.063100
vn -0.152100 0.984900 -0.082900
vn -0.356500 0.933500 -0.037400
vn 0.093200 -0.927900 0.361000
vn 0.391200 -0.920300 0.001400
vn 0.172800 -0.914700 0.365400
vn 0.153200 -0.985200 0.076800
vn 0.346800 0.836300 -0.424700
vn 0.990100 0.020900 -0.139000
vn -0.626700 -0.493300 0.603200
vn -0.314700 -0.948600 -0.032600
vn 0.568700 -0.704700 0.424300
vn -0.327700 0.937400 0.117800
vn 0.480700 0.595700 0.643500
vn 0.289300 0.900300 -0.325100
vn 0.839200 0.420200 -0.345300
vn 0.782300 0.533300 -0.321900
vn 0.274100 0.929400 0.247400
vn -0.576000 -0.707300 -0.409900
vn 0.274200 0.929300 0.247400
vn 0.875300 0.389700 0.286200
vn 0.881500 0.374100 0.288300
vn 0.206400 -0.862900 -0.461200
vn 0.299900 0.904600 -0.303000
vn -0.278800 0.959100 -0.048400
vn 0.770900 -0.635200 0.046700
vn -0.497500 -0.713500 0.493300
vn -0.080200 0.990900 0.107800
vn 0.151300 0.987800 0.037400
vn 0.315100 -0.948500 -0.032000
vn 0.815000 -0.475000 -0.331900
vn 0.329300 -0.937200 -0.114800
vn 0.626700 -0.493300 0.603200
vn 0.099100 -0.989300 -0.106900
vn -0.568700 -0.704700 0.424300
vn -0.404500 0.621400 0.671000
vn -0.274100 0.929300 0.247400
vn -0.393700 0.871600 -0.292000
vn 0.497500 -0.713500 0.493300
vn 0.080200 0.990900 0.107800
vn 0.079200 0.991100 0.106900
vn -0.155500 -0.987400 -0.031000
usemtl Material.001
s off
f 2/1/1 15/2/1 89/3/1
f 118/4/2 21/5/2 22/6/2
f 44/7/3 14/8/3 13/9/3
f 24/10/4 60/3/4 25/3/4
f 4/11/5 42/3/5 16/12/5
f 20/13/6 34/14/6 37/15/6
f 4/16/7 21/5/7 10/17/7
f 13/18/8 38/19/8 35/20/8
f 17/21/9 43/22/9 45/23/9
f 32/8/10 87/10/10 93/24/10
f 71/13/11 118/4/11 117/25/11
f 31/9/12 91/7/12 92/23/12
f 2/1/13 29/26/13 15/2/13
f 29/26/14 1/11/14 15/2/14
f 6/27/15 114/28/15 116/29/15
f 5/1/16 11/26/16 6/27/16
f 4/11/17 11/26/17 9/2/17
f 110/22/18 99/30/18 96/22/18
f 70/31/19 90/22/19 94/30/19
f 20/13/20 18/32/20 17/33/20
f 22/6/21 16/34/21 18/32/21
f 120/35/22 38/19/22 26/36/22
f 31/18/23 85/19/23 78/36/23
f 46/24/24 12/37/24 14/8/24
f 44/7/25 35/38/25 45/23/25
f 18/31/26 43/22/26 17/21/26
f 42/3/27 9/2/27 5/1/27
f 118/4/28 20/13/28 117/25/28
f 114/28/29 10/39/29 115/40/29
f 27/41/30 14/42/30 12/43/30
f 28/44/31 13/18/31 14/42/31
f 121/45/32 26/36/32 28/44/32
f 121/45/33 27/41/33 122/46/33
f 33/34/34 74/6/34 70/32/34
f 122/46/35 6/47/35 116/48/35
f 5/49/36 27/41/36 12/43/36
f 133/10/37 136/3/37 132/50/37
f 133/10/38 131/30/38 129/24/38
f 109/23/39 96/22/39 95/23/39
f 106/51/40 34/52/40 104/53/40
f 41/54/41 25/3/41 23/54/41
f 46/24/42 24/10/42 40/10/42
f 47/30/43 23/54/43 52/30/43
f 47/30/44 49/22/44 43/22/44
f 41/54/45 18/31/45 16/12/45
f 23/54/46 60/3/46 56/54/46
f 52/30/47 59/22/47 49/22/47
f 51/24/48 54/7/48 53/24/48
f 40/10/49 25/3/49 42/3/49
f 46/24/50 50/7/50 51/24/50
f 44/7/51 48/23/51 50/7/51
f 43/22/52 48/23/52 45/23/52
f 55/30/53 64/54/53 63/30/53
f 54/7/54 66/23/54 62/7/54
f 59/22/55 66/23/55 58/23/55
f 53/24/56 65/10/56 57/10/56
f 50/7/57 58/23/57 54/7/57
f 52/30/58 56/54/58 55/30/58
f 51/24/59 57/10/59 24/10/59
f 49/22/60 58/23/60 48/23/60
f 65/10/61 64/50/61 68/3/61
f 67/22/62 62/55/62 66/23/62
f 65/10/63 63/30/63 64/54/63
f 61/24/64 67/22/64 63/30/64
f 59/22/65 63/30/65 67/22/65
f 56/54/66 68/3/66 64/54/66
f 57/10/67 68/3/67 60/3/67
f 54/7/68 61/24/68 53/24/68
f 70/32/69 71/13/69 69/33/69
f 121/45/70 78/36/70 120/35/70
f 2/49/71 79/41/71 3/47/71
f 3/47/72 122/46/72 116/48/72
f 114/28/73 19/39/73 29/26/73
f 75/54/74 111/3/74 77/3/74
f 96/22/75 94/30/75 90/22/75
f 141/51/76 81/52/76 84/56/76
f 120/35/77 85/19/77 128/57/77
f 79/41/78 121/45/78 122/46/78
f 31/18/79 80/44/79 32/42/79
f 32/42/80 79/41/80 30/43/80
f 77/3/81 87/10/81 89/3/81
f 95/23/82 90/22/82 92/23/82
f 134/23/83 110/22/83 109/23/83
f 91/7/84 95/23/84 92/23/84
f 94/30/85 75/54/85 88/54/85
f 88/54/86 77/3/86 89/3/86
f 76/10/87 93/24/87 87/10/87
f 70/31/88 88/54/88 33/12/88
f 99/30/89 107/54/89 75/54/89
f 102/30/90 132/54/90 107/54/90
f 93/24/91 97/7/91 91/7/91
f 101/7/92 134/23/92 109/23/92
f 133/10/93 100/24/93 108/10/93
f 97/7/94 109/23/94 95/23/94
f 108/10/95 98/24/95 76/10/95
f 98/24/96 101/7/96 97/7/96
f 107/54/97 136/3/97 111/3/97
f 129/24/98 135/22/98 130/7/98
f 105/58/99 35/59/99 38/60/99
f 112/61/100 124/62/100 36/58/100
f 104/63/101 39/63/101 73/63/101
f 125/64/102 106/51/102 127/51/102
f 135/22/103 134/23/103 130/55/103
f 103/65/104 36/58/104 39/65/104
f 128/66/105 105/58/105 38/60/105
f 110/22/106 131/30/106 102/30/106
f 106/51/107 123/67/107 37/56/107
f 72/5/108 1/16/108 19/17/108
f 33/12/109 89/3/109 1/11/109
f 71/13/110 81/14/110 69/33/110
f 114/28/111 3/27/111 116/29/111
f 37/15/112 117/25/112 20/13/112
f 92/23/113 69/21/113 81/68/113
f 111/3/114 76/10/114 77/3/114
f 10/17/115 119/69/115 115/70/115
f 118/4/116 72/5/116 119/69/116
f 32/8/117 91/7/117 31/9/117
f 124/62/118 113/71/118 73/53/118
f 104/53/119 113/71/119 127/51/119
f 105/58/120 112/61/120 36/58/120
f 136/3/121 108/10/121 111/3/121
f 129/24/122 101/7/122 100/24/122
f 82/59/123 140/58/123 85/60/123
f 112/61/124 83/58/124 124/62/124
f 139/63/125 86/63/125 138/63/125
f 125/64/126 127/51/126 141/51/126
f 138/65/127 83/58/127 140/58/127
f 140/58/128 128/66/128 85/60/128
f 141/51/129 123/67/129 125/64/129
f 117/25/130 84/15/130 71/13/130
f 19/17/131 119/69/131 72/5/131
f 137/53/132 124/62/132 83/58/132
f 113/71/133 137/53/133 139/53/133
f 140/58/134 112/61/134 126/72/134
f 87/10/135 30/37/135 89/3/135
f 30/37/136 2/1/136 89/3/136
f 118/4/137 119/69/137 21/5/137
f 44/7/138 46/24/138 14/8/138
f 24/10/139 57/10/139 60/3/139
f 9/2/140 42/3/140 4/11/140
f 42/3/141 41/54/141 16/12/141
f 20/13/142 17/33/142 34/14/142
f 4/16/143 16/34/143 21/5/143
f 13/18/144 26/36/144 38/19/144
f 45/23/145 7/73/145 34/68/145
f 34/68/146 17/21/146 45/23/146
f 32/8/147 30/37/147 87/10/147
f 71/13/148 74/6/148 118/4/148
f 8/73/149 82/38/149 92/23/149
f 82/38/150 31/9/150 92/23/150
f 2/1/151 3/27/151 29/26/151
f 29/26/152 19/39/152 1/11/152
f 6/27/153 11/26/153 114/28/153
f 5/1/154 9/2/154 11/26/154
f 4/11/155 10/39/155 11/26/155
f 110/22/156 102/30/156 99/30/156
f 70/31/157 69/21/157 90/22/157
f 20/13/158 22/6/158 18/32/158
f 22/6/159 21/5/159 16/34/159
f 120/35/160 128/57/160 38/19/160
f 31/18/161 82/20/161 85/19/161
f 46/24/162 40/10/162 12/37/162
f 13/9/163 35/38/163 44/7/163
f 35/38/164 7/73/164 45/23/164
f 18/31/165 47/30/165 43/22/165
f 5/1/166 12/37/166 42/3/166
f 12/37/167 40/10/167 42/3/167
f 118/4/168 22/6/168 20/13/168
f 114/28/169 11/26/169 10/39/169
f 27/41/170 28/44/170 14/42/170
f 28/44/171 26/36/171 13/18/171
f 121/45/172 120/35/172 26/36/172
f 121/45/173 28/44/173 27/41/173
f 33/34/174 72/5/174 74/6/174
f 122/46/175 27/41/175 6/47/175
f 5/49/176 6/47/176 27/41/176
f 133/10/177 132/54/177 131/30/177
f 109/23/178 110/22/178 96/22/178
f 106/51/179 37/56/179 34/52/179
f 41/54/180 42/3/180 25/3/180
f 46/24/181 51/24/181 24/10/181
f 47/30/182 41/54/182 23/54/182
f 47/30/183 52/30/183 49/22/183
f 41/54/184 47/30/184 18/31/184
f 23/54/185 25/3/185 60/3/185
f 52/30/186 55/30/186 59/22/186
f 51/24/48 50/7/48 54/7/48
f 40/10/187 24/10/187 25/3/187
f 46/24/50 44/7/50 50/7/50
f 44/7/188 45/23/188 48/23/188
f 43/22/189 49/22/189 48/23/189
f 55/30/190 56/54/190 64/54/190
f 54/7/191 58/23/191 66/23/191
f 59/22/192 67/22/192 66/23/192
f 53/24/193 61/24/193 65/10/193
f 50/7/194 48/23/194 58/23/194
f 52/30/195 23/54/195 56/54/195
f 51/24/196 53/24/196 57/10/196
f 49/22/197 59/22/197 58/23/197
f 65/10/198 61/24/198 63/30/198
f 61/24/199 62/7/199 67/22/199
f 59/22/200 55/30/200 63/30/200
f 56/54/201 60/3/201 68/3/201
f 57/10/202 65/10/202 68/3/202
f 54/7/203 62/7/203 61/24/203
f 70/32/204 74/6/204 71/13/204
f 121/45/205 80/44/205 78/36/205
f 2/49/206 30/43/206 79/41/206
f 3/47/207 79/41/207 122/46/207
f 114/28/208 115/40/208 19/39/208
f 75/54/209 107/54/209 111/3/209
f 96/22/210 99/30/210 94/30/210
f 141/51/211 139/53/211 81/52/211
f 120/35/212 78/36/212 85/19/212
f 79/41/213 80/44/213 121/45/213
f 31/18/214 78/36/214 80/44/214
f 32/42/215 80/44/215 79/41/215
f 77/3/216 76/10/216 87/10/216
f 95/23/217 96/22/217 90/22/217
f 134/23/218 135/22/218 110/22/218
f 91/7/219 97/7/219 95/23/219
f 94/30/220 99/30/220 75/54/220
f 88/54/221 75/54/221 77/3/221
f 76/10/222 98/24/222 93/24/222
f 70/31/223 94/30/223 88/54/223
f 99/30/224 102/30/224 107/54/224
f 102/30/225 131/30/225 132/54/225
f 93/24/91 98/24/91 97/7/91
f 101/7/226 130/7/226 134/23/226
f 133/10/227 129/24/227 100/24/227
f 97/7/228 101/7/228 109/23/228
f 108/10/229 100/24/229 98/24/229
f 98/24/96 100/24/96 101/7/96
f 107/54/230 132/54/230 136/3/230
f 129/24/231 131/30/231 135/22/231
f 105/58/232 103/65/232 35/59/232
f 104/63/101 103/63/101 39/63/101
f 103/65/233 105/58/233 36/58/233
f 128/66/234 126/72/234 105/58/234
f 110/22/235 135/22/235 131/30/235
f 106/51/236 125/64/236 123/67/236
f 72/5/237 33/34/237 1/16/237
f 88/54/238 89/3/238 33/12/238
f 89/3/239 15/2/239 1/11/239
f 71/13/240 84/15/240 81/14/240
f 114/28/241 29/26/241 3/27/241
f 37/15/242 123/74/242 117/25/242
f 81/68/243 8/73/243 92/23/243
f 92/23/244 90/22/244 69/21/244
f 111/3/245 108/10/245 76/10/245
f 10/17/246 21/5/246 119/69/246
f 118/4/247 74/6/247 72/5/247
f 32/8/248 93/24/248 91/7/248
f 73/53/249 39/65/249 36/58/249
f 36/58/118 124/62/118 73/53/118
f 127/51/250 106/51/250 104/53/250
f 104/53/251 73/53/251 113/71/251
f 105/58/252 126/72/252 112/61/252
f 136/3/253 133/10/253 108/10/253
f 129/24/254 130/7/254 101/7/254
f 82/59/255 138/65/255 140/58/255
f 139/63/125 137/63/125 86/63/125
f 138/65/256 86/65/256 83/58/256
f 140/58/257 126/72/257 128/66/257
f 141/51/258 84/56/258 123/67/258
f 117/25/259 123/74/259 84/15/259
f 19/17/260 115/70/260 119/69/260
f 83/58/261 86/65/261 137/53/261
f 137/53/132 113/71/132 124/62/132
f 139/53/262 141/51/262 127/51/262
f 127/51/263 113/71/263 139/53/263
f 140/58/264 83/58/264 112/61/264
