# Blender v2.92.0 OBJ File: 'bd2.blend'
# www.blender.org
mtllib bird3.mtl
o Cube.001
v 0.210288 0.153472 -1.097104
v 0.210284 -0.127844 -1.097104
v 0.265717 0.198259 1.141820
v 0.258060 -0.151819 1.129974
v -0.210288 0.153472 -1.097104
v -0.210284 -0.127844 -1.097104
v -0.265717 0.198259 1.141820
v -0.258060 -0.151819 1.129974
v 0.000000 -0.158667 -1.279327
v 0.256369 0.012814 -1.279327
v 0.315861 0.032139 1.318423
v -0.256369 0.012814 -1.279327
v -0.315861 0.032139 1.318423
v 0.000000 0.184296 -1.279327
v 0.000000 0.012814 -1.579879
v 0.166224 0.236390 0.592863
v 0.101817 0.253614 -0.604432
v 0.234481 0.282433 -0.031238
v -0.166224 0.236390 0.592863
v -0.101817 0.253614 -0.604432
v 0.342845 -0.216513 -0.598092
v 0.348217 -0.220107 0.658273
v 0.416693 -0.265910 0.034845
v 0.000000 0.353785 0.548834
v 0.000000 0.339860 -0.672564
v 0.000000 0.390082 0.035815
v -0.234481 0.282433 -0.031238
v -0.342845 -0.216513 -0.598092
v 0.000000 -0.328156 0.548834
v 0.000000 -0.312744 -0.655804
v 0.000000 -0.364454 0.035815
v 0.418645 0.008262 0.515792
v 0.420771 0.008262 -0.566600
v 0.472910 0.008262 0.002773
v 0.604651 0.013353 2.230756
v -0.348217 -0.220107 0.658273
v 0.342840 -0.216513 -0.598092
v 0.000000 0.339860 -0.672564
v -0.416693 -0.265910 0.034845
v 0.000000 -0.312744 -0.655804
v 2.512978 0.033061 0.382606
v 2.553587 0.009268 -0.505565
v 3.233312 -0.026112 0.151386
v 1.106036 0.036986 -0.116584
v 0.981702 0.044978 -0.736901
v 1.148511 0.043893 0.294544
v 1.889870 0.046696 -0.819670
v 1.810946 0.041036 -0.146941
v 1.842147 0.051007 0.241516
v 0.000000 -0.185272 1.328597
v 0.000000 0.045126 1.880429
v 0.000000 0.190512 1.421497
v 0.000000 0.038303 2.677611
v -0.418645 0.008262 0.515792
v -0.420771 0.008262 -0.566600
v -0.472910 0.008262 0.002773
v -0.604651 0.013353 2.230756
v -0.342840 -0.216513 -0.598092
v 0.000000 0.339860 -0.672564
v 0.265726 0.198259 1.141820
v 0.315865 0.032139 1.318423
v -2.512978 0.033061 0.382606
v 0.000000 0.045126 1.880429
v 0.000000 0.190512 1.421497
v 0.000000 0.238143 1.357533
v 0.000000 0.238429 1.357142
v -2.553587 0.009268 -0.505565
v -3.233312 -0.026112 0.151386
v -1.106036 0.036986 -0.116584
v -0.981702 0.044978 -0.736901
v -1.148511 0.043893 0.294544
v -1.889870 0.046696 -0.819670
v -1.810946 0.041036 -0.146941
v -1.842147 0.051007 0.241516
v -0.265726 0.198259 1.141820
v -0.315865 0.032139 1.318423
vt 0.253388 0.175420
vt 0.162881 0.250574
vt 0.120377 0.233819
vt 0.138183 0.187550
vt 0.213484 0.146502
vt 0.280904 0.584335
vt 0.405786 0.550959
vt 0.405364 0.614353
vt 0.373008 0.374862
vt 0.260857 0.376327
vt 0.281026 0.343059
vt 0.253390 0.439081
vt 0.213486 0.467999
vt 0.138184 0.426951
vt 0.120378 0.380682
vt 0.162882 0.363927
vt 0.560514 0.525245
vt 0.521812 0.561049
vt 0.510934 0.526528
vt 0.415832 0.512824
vt 0.458237 0.457487
vt 0.309220 0.514472
vt 0.363255 0.422030
vt 0.612229 0.012564
vt 0.698995 0.128226
vt 0.712932 0.015406
vt 0.488491 0.575851
vt 0.488490 0.038652
vt 0.415830 0.101678
vt 0.405785 0.063543
vt 0.510932 0.087975
vt 0.521811 0.053455
vt 0.405364 0.000148
vt 0.521925 0.001320
vt 0.481669 0.170615
vt 0.458234 0.157015
vt 0.281025 0.271440
vt 0.260855 0.238173
vt 0.192679 0.078065
vt 0.079076 0.174048
vt 0.120527 0.748614
vt 0.097270 0.859868
vt 0.000148 0.721916
vt 0.560513 0.089259
vt 0.583719 0.026473
vt 0.771799 0.131136
vt 0.701521 0.252628
vt 0.770249 0.253752
vt 0.116634 0.307251
vt 0.132569 0.307250
vt 0.373004 0.239638
vt 0.363252 0.192470
vt 0.019789 0.307251
vt 0.133887 0.307250
vt 0.309217 0.100027
vt 0.280902 0.030164
vt 0.481672 0.443888
vt 0.332753 0.138495
vt 0.769710 0.499852
vt 0.802556 0.370222
vt 0.332756 0.476004
vt 0.701521 0.747372
vt 0.769710 0.500148
vt 0.646658 0.612608
vt 0.770249 0.746248
vt 0.802556 0.629778
vt 0.712932 0.984594
vt 0.802556 0.999852
vt 0.771799 0.868864
vt 0.612229 0.987436
vt 0.698995 0.871774
vt 0.588474 0.886706
vt 0.203590 0.657485
vt 0.203590 0.826196
vt 0.521925 0.613184
vt 0.583719 0.588032
vt 0.588474 0.113294
vt 0.584016 0.273961
vt 0.333400 0.474585
vt 0.079077 0.440454
vt 0.802556 0.000148
vt 0.646658 0.387392
vt 0.192682 0.536436
vt 0.000148 0.359222
vt 0.333398 0.139914
vt 0.584016 0.726039
vt 0.078100 0.614650
vt 0.000148 0.255280
vn 0.9153 0.3886 0.1057
vn 0.9637 -0.1672 0.2084
vn -0.2807 -0.9571 -0.0716
vn -0.5656 0.8226 0.0582
vn -0.9637 -0.1672 0.2084
vn -0.9153 0.3886 0.1057
vn -0.4971 0.7431 -0.4479
vn -0.6115 0.7908 -0.0261
vn -0.9673 -0.2219 0.1226
vn -0.6131 0.7691 -0.1806
vn 0.0446 0.9990 0.0041
vn -0.2999 -0.9224 -0.2436
vn 0.9155 -0.2764 -0.2923
vn 0.8341 0.5182 -0.1891
vn 0.3305 -0.9162 -0.2264
vn 0.6506 0.7593 -0.0111
vn 0.5849 0.8096 -0.0498
vn 0.2573 -0.9505 0.1742
vn -0.6576 0.7503 -0.0671
vn -0.0497 0.9988 0.0048
vn 0.5023 0.7510 -0.4285
vn 0.4971 -0.7432 -0.4479
vn 0.0121 0.9996 -0.0247
vn -0.5126 0.6886 0.5128
vn 0.3815 0.9146 -0.1343
vn 0.4412 0.8901 0.1139
vn -0.4995 0.8259 0.2616
vn -0.5144 0.6927 0.5055
vn 0.2662 -0.9588 0.0997
vn 0.2287 -0.9681 -0.1022
vn -0.8341 0.5182 -0.1891
vn -0.6506 0.7593 -0.0111
vn 0.6862 0.7161 0.1279
vn 0.6131 0.7691 -0.1806
vn 0.9683 -0.2137 -0.1296
vn 0.9673 -0.2219 0.1226
vn -0.6862 0.7161 0.1279
vn -0.0608 0.9960 -0.0656
vn -0.9767 -0.1882 0.1033
vn 0.0458 0.9989 0.0064
vn 0.0327 0.9991 -0.0283
vn -0.0504 0.9987 -0.0053
vn -0.0446 0.9990 0.0041
vn -0.0121 0.9996 -0.0247
vn -0.0051 0.9999 0.0139
vn 0.5126 0.6886 0.5128
vn 0.0497 0.9988 0.0048
vn 0.4940 -0.6931 0.5250
vn -0.5023 -0.7510 -0.4285
vn 0.0011 1.0000 0.0083
vn 0.0579 0.9980 0.0245
vn -0.7570 0.6497 -0.0693
vn -0.4412 0.8901 0.1139
vn 0.6576 0.7503 -0.0671
vn 0.9013 -0.4140 0.1277
vn -0.6658 0.7443 -0.0528
vn -0.4940 -0.6931 0.5250
vn 0.0504 0.9987 -0.0053
vn -0.9683 -0.2137 -0.1296
vn -0.3364 0.9122 -0.2339
vn -0.7473 0.6597 0.0790
vn -0.2287 -0.9681 -0.1022
vn -0.0458 0.9989 0.0064
vn -0.9155 -0.2764 -0.2923
vn -0.2297 -0.9708 0.0687
vn 0.8293 -0.5238 -0.1946
vn 0.6115 0.7908 -0.0261
vn 0.2999 -0.9224 -0.2436
vn 0.3364 0.9122 -0.2339
vn -0.2573 -0.9505 0.1742
vn 0.2382 -0.9537 0.1836
vn -0.9013 -0.4140 0.1277
vn -0.8293 -0.5238 -0.1946
vn 0.4971 0.7431 -0.4479
vn 0.5023 -0.7510 -0.4285
vn -0.0327 0.9991 -0.0283
vn 0.0051 0.9999 0.0139
vn 0.6658 0.7443 -0.0528
vn 0.5656 0.8226 0.0582
vn 0.0064 0.9998 -0.0161
vn -0.5436 -0.7746 0.3234
vn 0.2297 -0.9708 0.0687
vn 0.2807 -0.9571 -0.0716
vn -0.3305 -0.9162 -0.2264
vn -0.5849 0.8096 -0.0498
vn 0.7473 0.6597 0.0790
vn 0.7570 0.6497 -0.0693
vn 0.9450 -0.3155 -0.0865
vn 0.9767 -0.1882 0.1033
vn -0.5023 0.7510 -0.4285
vn 0.0476 0.9988 -0.0119
vn -0.0496 0.9987 0.0142
vn 0.0496 0.9987 0.0142
vn 0.0608 0.9960 -0.0656
vn -0.0476 0.9988 -0.0119
vn -0.0579 0.9980 0.0245
vn -0.0064 0.9998 -0.0161
vn -0.0011 1.0000 0.0083
vn 0.4995 0.8259 0.2616
vn -0.4971 -0.7432 -0.4479
vn 0.0475 0.9988 0.0085
vn 0.5436 -0.7746 0.3234
vn -0.2382 -0.9537 0.1836
vn -0.2554 0.9571 0.1366
vn -0.0475 0.9988 0.0085
vn -0.9450 -0.3155 -0.0865
vn -0.2662 -0.9588 0.0997
vn 0.2554 0.9571 0.1366
vn -0.3815 0.9146 -0.1343
vn 0.5144 0.6927 0.5055
usemtl Bird
s off
f 32/1/1 3/2/1 11/3/1
f 32/1/2 4/4/2 22/5/2
f 31/6/3 28/7/3 30/8/3
f 26/9/4 19/10/4 24/11/4
f 54/12/5 36/13/5 8/14/5
f 54/12/6 13/15/6 7/16/6
f 14/17/7 12/18/7 5/19/7
f 5/19/8 55/20/8 20/21/8
f 39/22/9 36/13/9 54/12/9
f 27/23/10 20/21/10 55/20/10
f 55/24/11 69/25/11 56/26/11
f 6/27/12 30/8/12 28/7/12
f 2/28/13 33/29/13 21/30/13
f 1/31/14 33/29/14 10/32/14
f 2/28/15 30/33/15 9/34/15
f 1/31/16 25/35/16 17/36/16
f 24/37/17 3/2/17 16/38/17
f 29/39/18 4/4/18 50/40/18
f 54/12/19 7/16/19 19/10/19
f 51/41/20 13/42/20 57/43/20
f 14/44/21 10/32/21 15/45/21
f 9/34/22 10/32/22 2/28/22
f 71/46/23 73/47/23 74/48/23
f 52/49/24 65/50/24 13/15/24
f 17/36/25 26/51/25 18/52/25
f 26/51/26 16/38/26 18/52/26
f 51/53/27 52/49/27 13/15/27
f 13/15/28 65/50/28 66/54/28 7/16/28
f 29/39/29 23/55/29 22/5/29
f 31/56/30 21/30/30 23/55/30
f 5/19/31 12/18/31 55/20/31
f 5/19/32 20/21/32 25/57/32
f 32/1/33 18/52/33 16/38/33
f 18/52/34 33/29/34 17/36/34
f 21/30/35 34/58/35 23/55/35
f 23/55/36 32/1/36 22/5/36
f 54/12/37 19/10/37 27/23/37
f 73/47/38 68/59/38 62/60/38
f 39/22/39 54/12/39 56/61/39
f 48/62/40 43/63/40 42/64/40
f 48/62/41 49/65/41 41/66/41
f 34/67/42 32/68/42 46/69/42
f 33/70/43 34/67/43 44/71/43
f 46/69/44 49/65/44 48/62/44
f 45/72/45 44/71/45 48/62/45
f 52/49/46 11/3/46 65/50/46
f 51/41/47 35/73/47 11/74/47
f 11/3/48 50/40/48 4/4/48
f 9/75/49 12/18/49 15/76/49
f 70/77/50 72/78/50 73/47/50
f 55/24/51 70/77/51 69/25/51
f 27/23/52 55/20/52 56/79/52
f 26/9/53 27/23/53 19/10/53
f 32/1/54 16/38/54 3/2/54
f 32/1/55 11/3/55 4/4/55
f 20/21/56 26/9/56 25/57/56
f 13/15/57 8/14/57 50/80/57
f 56/26/58 71/46/58 54/81/58
f 28/7/59 39/22/59 56/61/59
f 5/19/60 25/57/60 14/17/60
f 54/12/61 27/23/61 56/79/61
f 31/6/62 39/22/62 28/7/62
f 73/47/63 67/82/63 68/59/63
f 6/27/64 28/7/64 55/20/64
f 29/83/65 39/22/65 31/6/65
f 2/28/66 10/32/66 33/29/66
f 1/31/67 17/36/67 33/29/67
f 2/28/68 21/30/68 30/33/68
f 1/31/69 14/44/69 25/35/69
f 29/83/70 50/80/70 8/14/70
f 29/39/71 22/5/71 4/4/71
f 54/12/72 8/14/72 13/15/72
f 6/27/73 55/20/73 12/18/73
f 14/44/74 1/31/74 10/32/74
f 9/34/75 15/45/75 10/32/75
f 73/47/76 62/60/76 74/48/76
f 70/77/77 73/47/77 69/25/77
f 17/36/78 25/35/78 26/51/78
f 26/51/79 24/37/79 16/38/79
f 71/46/80 69/25/80 73/47/80
f 13/15/81 50/80/81 51/84/81
f 29/39/82 31/56/82 23/55/82
f 31/56/83 30/33/83 21/30/83
f 6/27/84 9/75/84 30/8/84
f 24/11/85 19/10/85 7/16/85
f 32/1/86 34/85/86 18/52/86
f 18/52/87 34/85/87 33/29/87
f 21/30/88 33/29/88 34/58/88
f 23/55/89 34/58/89 32/1/89
f 14/17/90 15/76/90 12/18/90
f 56/26/91 69/25/91 71/46/91
f 73/47/92 72/78/92 67/82/92
f 48/62/93 42/64/93 47/86/93
f 48/62/94 41/66/94 43/63/94
f 34/67/95 46/69/95 44/71/95
f 33/70/96 44/71/96 45/72/96
f 46/69/97 48/62/97 44/71/97
f 45/72/98 48/62/98 47/86/98
f 51/53/99 11/3/99 52/49/99
f 9/75/100 6/27/100 12/18/100
f 51/41/101 53/87/101 35/73/101
f 11/3/102 51/88/102 50/40/102
f 29/83/103 8/14/103 36/13/103
f 7/16/104 66/54/104 24/11/104
f 51/41/105 57/43/105 53/87/105
f 28/7/106 56/61/106 55/20/106
f 29/83/107 36/13/107 39/22/107
f 3/2/108 24/37/108 66/54/108
f 20/21/109 27/23/109 26/9/109
f 11/3/110 3/2/110 66/54/110 65/50/110
l 63 64
l 37 40
l 61 60
l 63 61
l 76 75
l 58 40
l 63 76
